<svg width="217" height="11" viewBox="0 0 217 11" fill="none" xmlns="http://www.w3.org/2000/svg">
<path d="M4 8.13C1.75 8.13 0.36 6.55 0.36 4.47C0.36 2.4 1.75 0.819999 4 0.819999C5.98 0.819999 7.28 1.91 7.49 3.67H5.84C5.69 2.78 5.01 2.26 4.01 2.26C2.81 2.26 2.01 3.02 2.01 4.47C2.01 5.93 2.81 6.68 4.01 6.68C5.01 6.68 5.69 6.16 5.84 5.27H7.49C7.28 7.04 5.98 8.13 4 8.13ZM8.18227 4.47C8.18227 2.4 9.55227 0.819999 11.8023 0.819999C14.0423 0.819999 15.4023 2.4 15.4023 4.47C15.4023 6.55 14.0423 8.13 11.8023 8.13C9.55227 8.13 8.18227 6.55 8.18227 4.47ZM9.83227 4.47C9.83227 5.84 10.4923 6.68 11.8023 6.68C13.1123 6.68 13.7523 5.84 13.7523 4.47C13.7523 3.1 13.1023 2.26 11.8023 2.26C10.4923 2.26 9.83227 3.11 9.83227 4.47ZM16.3717 8V0.95H18.9717C21.1017 0.95 22.1117 1.65 22.1117 3.46C22.1117 5.27 21.1017 5.97 18.9717 5.97H17.9717V8H16.3717ZM17.9717 4.57H19.0717C20.0217 4.57 20.5117 4.33 20.5117 3.46C20.5117 2.59 20.0217 2.35 19.0717 2.35H17.9717V4.57ZM27.4773 0.95H29.1973L27.4073 5.22H26.5773V8H24.9773V5.22H24.1373L22.3673 0.95H24.0773L25.5673 4.85H25.9773L27.4773 0.95ZM29.8873 8V0.95H32.8773C34.4773 0.95 35.9373 1.28 35.9373 2.83C35.9373 3.98 35.0473 4.31 34.3673 4.41V4.81H35.1273C35.6973 4.81 35.9973 5.17 35.9973 5.77V8H34.4073V5.52H31.4973V8H29.8873ZM31.4973 4.12H32.8773C33.7773 4.12 34.3373 4.05 34.3373 3.22C34.3373 2.39 33.7373 2.35 32.8773 2.35H31.4973V4.12ZM36.9055 0.95H41.7055V2.35H40.1055V6.59H41.7055V8H36.9055V6.59H38.5055V2.35H36.9055V0.95ZM45.5159 8.12C43.4259 8.12 42.1959 6.67 42.1959 4.53C42.1959 2.25 43.5859 0.819999 45.7659 0.819999C47.5959 0.819999 48.9759 1.87 49.2159 3.47H47.5659C47.4359 2.69 46.7559 2.2 45.8459 2.2C44.5859 2.2 43.8459 3.08 43.8459 4.51C43.8459 5.83 44.4659 6.73 45.9259 6.73C47.0859 6.73 47.7959 6.17 47.8159 5.29H45.8759V4.06H48.5659C49.1259 4.06 49.4459 4.37 49.4459 4.92V8H47.8459V7.45L48.1559 6.25H47.7459C47.7759 6.61 47.6159 8.12 45.5159 8.12ZM50.6588 0.95H52.2588V3.87H55.5688V0.95H57.1788V8H55.5688V5.27H52.2588V8H50.6588V0.95ZM58.0537 0.95H64.2637V2.35H61.9637V8H60.3637V2.35H58.0537V0.95ZM67.7923 4.17C67.7923 1.78 69.2423 0.819999 71.0923 0.819999C72.7923 0.819999 73.9423 1.65 73.9423 3.24C73.9423 5.49 71.4223 6.1 68.2823 6.59V7.02L69.5023 6.59H73.9423V8H67.8923V5.29C69.9423 5.12 72.3423 4.66 72.3423 3.21C72.3423 2.68 72.0423 2.21 71.0723 2.21C69.9323 2.21 69.3923 2.81 69.3923 4.17H67.7923ZM78.0964 8.13C75.9464 8.13 74.6664 6.65 74.6664 4.47C74.6664 2.3 75.9464 0.819999 78.0964 0.819999C80.2464 0.819999 81.5164 2.3 81.5164 4.47C81.5164 6.65 80.2464 8.13 78.0964 8.13ZM76.2764 4.47C76.2764 4.85 76.3164 5.18 76.3964 5.46L79.1764 2.52C78.8864 2.31 78.5264 2.2 78.0964 2.2C76.9564 2.2 76.2764 2.97 76.2764 4.47ZM77.0164 6.42C77.3064 6.63 77.6664 6.74 78.0964 6.74C79.2364 6.74 79.9164 5.99 79.9164 4.47C79.9164 4.1 79.8764 3.77 79.7964 3.49L77.0164 6.42ZM82.3236 4.17C82.3236 1.78 83.7736 0.819999 85.6236 0.819999C87.3236 0.819999 88.4736 1.65 88.4736 3.24C88.4736 5.49 85.9536 6.1 82.8136 6.59V7.02L84.0336 6.59H88.4736V8H82.4236V5.29C84.4736 5.12 86.8736 4.66 86.8736 3.21C86.8736 2.68 86.5736 2.21 85.6036 2.21C84.4636 2.21 83.9236 2.81 83.9236 4.17H82.3236ZM89.3255 4.17C89.3255 1.78 90.7755 0.819999 92.6255 0.819999C94.3255 0.819999 95.4755 1.65 95.4755 3.24C95.4755 5.49 92.9555 6.1 89.8155 6.59V7.02L91.0355 6.59H95.4755V8H89.4255V5.29C91.4755 5.12 93.8755 4.66 93.8755 3.21C93.8755 2.68 93.5755 2.21 92.6055 2.21C91.4655 2.21 90.9255 2.81 90.9255 4.17H89.3255ZM104.27 10.55C101.38 10.55 99.2005 8.36 99.2005 5.47C99.2005 2.58 101.38 0.399999 104.27 0.399999C107.16 0.399999 109.34 2.58 109.34 5.47C109.34 8.36 107.16 10.55 104.27 10.55ZM100.17 5.47C100.17 7.85 101.93 9.64 104.27 9.64C106.61 9.64 108.37 7.85 108.37 5.47C108.37 3.09 106.61 1.3 104.27 1.3C101.93 1.3 100.17 3.09 100.17 5.47ZM101.54 5.47C101.54 3.82 102.67 2.86 104.28 2.86C105.62 2.86 106.88 3.6 106.95 5.03H105.42C105.35 4.53 104.93 4.19 104.28 4.19C103.56 4.19 103.06 4.68 103.06 5.47C103.06 6.28 103.56 6.77 104.28 6.77C104.93 6.77 105.35 6.43 105.42 5.93H106.95C106.88 7.36 105.62 8.1 104.28 8.1C102.67 8.1 101.54 7.14 101.54 5.47ZM113.276 8V0.95H116.436L118.556 7.59H118.956L118.656 6.6V0.95H120.256V8H117.096L114.976 1.36H114.566L114.876 2.35V8H113.276ZM120.969 8L122.989 0.95H126.439L128.469 8H126.769L126.139 5.74H123.269L122.639 8H120.969ZM123.669 4.34H125.739L124.909 1.36H124.499L123.669 4.34ZM129.126 8V0.95H130.726V3.74H131.146L133.596 0.95H135.546L132.546 4.35L135.596 8H133.566L131.116 5H130.726V8H129.126ZM135.832 8L137.852 0.95H141.302L143.332 8H141.632L141.002 5.74H138.132L137.502 8H135.832ZM138.532 4.34H140.602L139.772 1.36H139.362L138.532 4.34ZM143.989 8V0.95H147.159L148.109 7.59H148.509L149.459 0.95H152.599V8H150.999V3.24L151.289 1.36H150.899L149.849 8H146.739L145.689 1.36H145.279L145.589 3.24V8H143.989ZM153.573 4.47C153.573 2.4 154.943 0.819999 157.193 0.819999C159.433 0.819999 160.793 2.4 160.793 4.47C160.793 6.55 159.433 8.13 157.193 8.13C154.943 8.13 153.573 6.55 153.573 4.47ZM155.223 4.47C155.223 5.84 155.883 6.68 157.193 6.68C158.503 6.68 159.143 5.84 159.143 4.47C159.143 3.1 158.493 2.26 157.193 2.26C155.883 2.26 155.223 3.11 155.223 4.47ZM160.759 0.95H166.969V2.35H164.669V8H163.069V2.35H160.759V0.95ZM167.186 4.47C167.186 2.4 168.556 0.819999 170.806 0.819999C173.046 0.819999 174.406 2.4 174.406 4.47C174.406 6.55 173.046 8.13 170.806 8.13C168.556 8.13 167.186 6.55 167.186 4.47ZM168.836 4.47C168.836 5.84 169.496 6.68 170.806 6.68C172.116 6.68 172.756 5.84 172.756 4.47C172.756 3.1 172.106 2.26 170.806 2.26C169.496 2.26 168.836 3.11 168.836 4.47ZM181.297 8.12C179.207 8.12 177.977 6.67 177.977 4.53C177.977 2.25 179.367 0.819999 181.547 0.819999C183.377 0.819999 184.757 1.87 184.997 3.47H183.347C183.217 2.69 182.537 2.2 181.627 2.2C180.367 2.2 179.627 3.08 179.627 4.51C179.627 5.83 180.247 6.73 181.707 6.73C182.867 6.73 183.577 6.17 183.597 5.29H181.657V4.06H184.347C184.907 4.06 185.227 4.37 185.227 4.92V8H183.627V7.45L183.937 6.25H183.527C183.557 6.61 183.397 8.12 181.297 8.12ZM185.959 8L187.979 0.95H191.429L193.459 8H191.759L191.129 5.74H188.259L187.629 8H185.959ZM188.659 4.34H190.729L189.899 1.36H189.489L188.659 4.34ZM194.116 8V0.95H197.286L198.236 7.59H198.636L199.586 0.95H202.726V8H201.126V3.24L201.416 1.36H201.026L199.976 8H196.866L195.816 1.36H195.406L195.716 3.24V8H194.116ZM203.95 8V0.95H209.39V2.35H205.56V3.8H208.89V5.13H205.56V6.6H209.39V8H203.95ZM216.587 5.97C216.587 7.29 215.687 8.13 213.507 8.13C211.097 8.13 210.047 7.09 210.047 5.28H211.697C211.697 6.35 212.177 6.79 213.547 6.79C214.517 6.79 214.937 6.56 214.937 6.04C214.937 5.72 214.707 5.48 214.207 5.35L211.937 4.75C210.747 4.44 210.347 3.74 210.347 2.86C210.347 1.53 211.337 0.819999 213.127 0.819999C215.267 0.819999 216.337 1.83 216.337 3.35H214.687C214.687 2.51 214.197 2.14 213.147 2.14C212.397 2.14 211.997 2.35 211.997 2.83C211.997 3.1 212.157 3.31 212.667 3.45L214.887 4C216.037 4.29 216.587 4.96 216.587 5.97Z" fill="#232329"/>
</svg>
