<svg width="94" height="94" viewBox="0 0 94 94" fill="none" xmlns="http://www.w3.org/2000/svg">
<path d="M70.7498 23.3584C57.8569 10.4655 36.7968 10.4655 23.904 23.3584C11.0111 36.2513 11.0111 57.3113 23.904 70.2042C30.1706 76.4709 38.4919 79.9124 47.3269 79.9124C56.1618 79.9124 64.4831 76.4709 70.7498 70.2042C77.0164 63.9376 80.4579 55.6163 80.4579 46.7813C80.4579 37.9464 76.9651 29.5737 70.7498 23.3584Z" fill="#010101" stroke="#232329" stroke-width="1.35504" stroke-miterlimit="10"/>
<path d="M65.4936 64.9264C75.5235 54.8966 75.5235 38.635 65.4936 28.6052C55.4638 18.5753 39.2022 18.5753 29.1724 28.6052C19.1425 38.635 19.1425 54.8966 29.1724 64.9264C39.2022 74.9563 55.4638 74.9563 65.4936 64.9264Z" stroke="#232329" stroke-width="1.35504" stroke-miterlimit="10" stroke-linecap="round" stroke-linejoin="round"/>
<path d="M39.5191 34.6077C42.036 32.399 44.7071 30.5498 47.3267 29.1629" stroke="#232329" stroke-width="1.35504" stroke-miterlimit="10" stroke-linecap="round" stroke-linejoin="round"/>
<path d="M29.7084 46.7819C31.5062 43.3918 34.0745 39.8989 37.2592 36.7142" stroke="#232329" stroke-width="1.35504" stroke-miterlimit="10" stroke-linecap="round" stroke-linejoin="round"/>
<path d="M50.6142 27.6216C56.6754 25.2074 62.2743 25.3615 65.459 28.5975C71.0065 34.1451 67.3595 46.7811 57.3431 56.7975C47.3267 66.8138 34.6907 70.4608 29.1432 64.9133C25.9071 61.6772 25.8044 55.9756 28.3213 49.8117" stroke="#232329" stroke-width="1.35504" stroke-miterlimit="10" stroke-linecap="round" stroke-linejoin="round"/>
<path d="M66.3323 49.8633C68.7978 56.0272 68.6951 61.6775 65.459 64.9649C62.2743 68.1496 56.6754 68.3037 50.6143 65.9409" stroke="#232329" stroke-width="1.35504" stroke-miterlimit="10" stroke-linecap="round" stroke-linejoin="round"/>
<path d="M37.2591 56.7974C27.2427 46.7811 23.5958 34.145 29.1433 28.5975C34.6908 23.05 47.3269 26.6969 57.3432 36.7133C60.5279 39.898 63.0962 43.3395 64.894 46.7811" stroke="#232329" stroke-width="1.35504" stroke-miterlimit="10" stroke-linecap="round" stroke-linejoin="round"/>
<path d="M47.3267 64.3488C44.7071 62.9619 42.036 61.1127 39.5191 58.904" stroke="#232329" stroke-width="1.35504" stroke-miterlimit="10" stroke-linecap="round" stroke-linejoin="round"/>
<path d="M59.6547 59.1091L65.4591 64.9135" stroke="#232329" stroke-width="1.35504" stroke-miterlimit="10" stroke-linecap="round" stroke-linejoin="round"/>
<path d="M57.3431 56.7978L54.5693 54.024C50.5628 50.0175 44.0393 50.0175 40.0327 54.024L29.1431 64.9136L40.0327 54.024C44.0393 50.0175 44.0393 43.494 40.0327 39.4874L29.1431 28.5978L40.0327 39.4874C44.0393 43.494 50.5628 43.494 54.5693 39.4874L57.3431 36.7137L54.5693 39.4874C50.5628 43.494 50.5628 50.0175 54.5693 54.024L57.3431 56.7978Z" fill="#232329" stroke="#232329" stroke-width="1.35504" stroke-miterlimit="10" stroke-linecap="round" stroke-linejoin="round"/>
<path d="M65.459 28.5978L59.3464 34.7104" stroke="#232329" stroke-width="1.35504" stroke-miterlimit="10" stroke-linecap="round" stroke-linejoin="round"/>
</svg>
